<mxfile host="Electron" agent="Mozilla/5.0 (X11; Linux x86_64) AppleWebKit/537.36 (KHTML, like Gecko) draw.io/28.0.6 Chrome/138.0.7204.100 Electron/37.2.3 Safari/537.36" version="28.0.6">
  <diagram name="Page-1" id="hA5EhwlokRMzZ5kNL8Si">
    <mxGraphModel dx="2276" dy="875" grid="1" gridSize="10" guides="1" tooltips="1" connect="1" arrows="1" fold="1" page="1" pageScale="1" pageWidth="850" pageHeight="1100" math="0" shadow="0">
      <root>
        <UserObject label="" customAnimation="" id="0">
          <mxCell />
        </UserObject>
        <mxCell id="I_AdbzGn9Q0q4DHOUhhW-22" value="SqD" style="" parent="0" />
        <mxCell id="4wrrVjMqCh2qOetNwkeV-33" value="interacts" style="edgeStyle=orthogonalEdgeStyle;rounded=0;orthogonalLoop=1;jettySize=auto;html=1;endArrow=none;endFill=0;strokeColor=#666666;startArrow=open;startFill=0;entryX=0.5;entryY=0;entryDx=0;entryDy=0;" edge="1" parent="I_AdbzGn9Q0q4DHOUhhW-22" source="4wrrVjMqCh2qOetNwkeV-8" target="79mV_z3nXGvTlv3c_QOG-38">
          <mxGeometry x="0.0909" y="10" relative="1" as="geometry">
            <Array as="points">
              <mxPoint x="85" y="19" />
              <mxPoint x="745" y="19" />
            </Array>
            <mxPoint as="offset" />
            <mxPoint x="490" y="19" as="sourcePoint" />
            <mxPoint x="600" y="19" as="targetPoint" />
          </mxGeometry>
        </mxCell>
        <mxCell id="_0e_HGupx2ryaP7_1tBM-23" value="Person" style="shape=umlLifeline;perimeter=lifelinePerimeter;whiteSpace=wrap;container=0;dropTarget=0;collapsible=0;recursiveResize=0;outlineConnect=0;portConstraint=eastwest;newEdgeStyle={&quot;edgeStyle&quot;:&quot;elbowEdgeStyle&quot;,&quot;elbow&quot;:&quot;vertical&quot;,&quot;curved&quot;:0,&quot;rounded&quot;:0};participant=umlActor;verticalAlign=bottom;labelPosition=center;verticalLabelPosition=top;align=center;size=65;fillColor=#f5f5f5;fontColor=#333333;strokeColor=#666666;" parent="I_AdbzGn9Q0q4DHOUhhW-22" vertex="1">
          <mxGeometry x="-23" y="595" width="35" height="410" as="geometry" />
        </mxCell>
        <mxCell id="_0e_HGupx2ryaP7_1tBM-28" value="isProfessor()" style="verticalAlign=bottom;edgeStyle=elbowEdgeStyle;elbow=vertical;curved=0;rounded=0;endArrow=classic;fillColor=#f5f5f5;strokeColor=#666666;entryX=0.023;entryY=0;entryDx=0;entryDy=0;entryPerimeter=0;endFill=1;" parent="I_AdbzGn9Q0q4DHOUhhW-22" source="_0e_HGupx2ryaP7_1tBM-37" target="_0e_HGupx2ryaP7_1tBM-27" edge="1">
          <mxGeometry relative="1" as="geometry">
            <Array as="points">
              <mxPoint x="467" y="715" />
            </Array>
            <mxPoint x="287" y="715" as="sourcePoint" />
            <mxPoint x="647" y="715" as="targetPoint" />
          </mxGeometry>
        </mxCell>
        <mxCell id="_0e_HGupx2ryaP7_1tBM-31" value="boolean" style="verticalAlign=bottom;edgeStyle=elbowEdgeStyle;elbow=vertical;curved=0;rounded=0;dashed=1;dashPattern=2 3;endArrow=classic;fillColor=#f5f5f5;strokeColor=#666666;endFill=1;" parent="I_AdbzGn9Q0q4DHOUhhW-22" edge="1" source="_0e_HGupx2ryaP7_1tBM-27">
          <mxGeometry relative="1" as="geometry">
            <Array as="points">
              <mxPoint x="584.64" y="745" />
            </Array>
            <mxPoint x="287" y="744.9999999999998" as="targetPoint" />
            <mxPoint x="647" y="744.9999999999998" as="sourcePoint" />
          </mxGeometry>
        </mxCell>
        <mxCell id="_0e_HGupx2ryaP7_1tBM-33" value="alt" style="shape=umlFrame;pointerEvents=0;dropTarget=0;strokeColor=#666666;height=20;width=30;fillColor=#f5f5f5;fontColor=#333333;container=0;" parent="I_AdbzGn9Q0q4DHOUhhW-22" vertex="1">
          <mxGeometry x="-63" y="765" width="1010" height="220" as="geometry" />
        </mxCell>
        <mxCell id="_0e_HGupx2ryaP7_1tBM-36" value="System" style="shape=umlLifeline;perimeter=lifelinePerimeter;whiteSpace=wrap;container=0;dropTarget=0;collapsible=0;recursiveResize=0;outlineConnect=0;portConstraint=eastwest;newEdgeStyle={&quot;edgeStyle&quot;:&quot;elbowEdgeStyle&quot;,&quot;elbow&quot;:&quot;vertical&quot;,&quot;curved&quot;:0,&quot;rounded&quot;:0};size=65;fillColor=#f5f5f5;fontColor=#333333;strokeColor=#666666;" parent="I_AdbzGn9Q0q4DHOUhhW-22" vertex="1">
          <mxGeometry x="207" y="595" width="150" height="410" as="geometry" />
        </mxCell>
        <mxCell id="_0e_HGupx2ryaP7_1tBM-41" value="purchaseParkingPass(person)" style="edgeStyle=elbowEdgeStyle;rounded=0;orthogonalLoop=1;jettySize=auto;html=1;elbow=vertical;curved=0;fillColor=#f5f5f5;strokeColor=#666666;entryX=0.005;entryY=0.001;entryDx=0;entryDy=0;entryPerimeter=0;" parent="I_AdbzGn9Q0q4DHOUhhW-22" source="_0e_HGupx2ryaP7_1tBM-25" target="_0e_HGupx2ryaP7_1tBM-37" edge="1">
          <mxGeometry x="-0.009" y="12" relative="1" as="geometry">
            <mxPoint x="-0.5" y="695" as="sourcePoint" />
            <mxPoint x="276.94000000000005" y="695.2830000000001" as="targetPoint" />
            <mxPoint as="offset" />
            <Array as="points">
              <mxPoint x="277" y="695" />
            </Array>
          </mxGeometry>
        </mxCell>
        <mxCell id="XX-iEoJ0HZW9s2SNBG-t-2" value="getDiscount()" style="verticalAlign=bottom;edgeStyle=elbowEdgeStyle;elbow=vertical;curved=0;rounded=0;endArrow=classic;fillColor=#f5f5f5;strokeColor=#666666;endFill=1;" parent="I_AdbzGn9Q0q4DHOUhhW-22" edge="1" target="mepjcGhPQeWuMpNhq97Y-3">
          <mxGeometry relative="1" as="geometry">
            <Array as="points">
              <mxPoint x="647" y="805" />
            </Array>
            <mxPoint x="287" y="805" as="sourcePoint" />
            <mxPoint x="647" y="805" as="targetPoint" />
          </mxGeometry>
        </mxCell>
        <mxCell id="XX-iEoJ0HZW9s2SNBG-t-3" value="discount" style="verticalAlign=bottom;edgeStyle=elbowEdgeStyle;elbow=vertical;curved=0;rounded=0;dashed=1;dashPattern=2 3;endArrow=classic;fillColor=#f5f5f5;strokeColor=#666666;endFill=1;" parent="I_AdbzGn9Q0q4DHOUhhW-22" edge="1" source="mepjcGhPQeWuMpNhq97Y-3">
          <mxGeometry relative="1" as="geometry">
            <Array as="points">
              <mxPoint x="584.6399999999999" y="835.22" />
            </Array>
            <mxPoint x="287" y="835" as="targetPoint" />
            <mxPoint x="727" y="835.22" as="sourcePoint" />
          </mxGeometry>
        </mxCell>
        <mxCell id="_0e_HGupx2ryaP7_1tBM-35" value="                     [Not professor]" style="shape=line;dashed=1;whiteSpace=wrap;verticalAlign=top;labelPosition=center;verticalLabelPosition=middle;align=left;strokeColor=#B3B3B3;container=0;" parent="I_AdbzGn9Q0q4DHOUhhW-22" vertex="1">
          <mxGeometry x="-63" y="934" width="1010" height="2.37" as="geometry" />
        </mxCell>
        <mxCell id="4wrrVjMqCh2qOetNwkeV-18" value="opt" style="shape=umlFrame;pointerEvents=0;dropTarget=0;strokeColor=#666666;height=20;width=30;fillColor=#f5f5f5;fontColor=#333333;container=0;" vertex="1" parent="I_AdbzGn9Q0q4DHOUhhW-22">
          <mxGeometry x="237" y="775" width="500" height="70" as="geometry" />
        </mxCell>
        <mxCell id="4wrrVjMqCh2qOetNwkeV-22" value="ParkingPass" style="shape=umlLifeline;perimeter=lifelinePerimeter;whiteSpace=wrap;container=0;dropTarget=0;collapsible=0;recursiveResize=0;outlineConnect=0;portConstraint=eastwest;newEdgeStyle={&quot;edgeStyle&quot;:&quot;elbowEdgeStyle&quot;,&quot;elbow&quot;:&quot;vertical&quot;,&quot;curved&quot;:0,&quot;rounded&quot;:0};size=65;fillColor=#f5f5f5;fontColor=#333333;strokeColor=#666666;" vertex="1" parent="I_AdbzGn9Q0q4DHOUhhW-22">
          <mxGeometry x="777" y="595" width="150" height="410" as="geometry" />
        </mxCell>
        <mxCell id="_0e_HGupx2ryaP7_1tBM-26" value="Person" style="shape=umlLifeline;perimeter=lifelinePerimeter;whiteSpace=wrap;container=0;dropTarget=0;collapsible=0;recursiveResize=0;outlineConnect=0;portConstraint=eastwest;newEdgeStyle={&quot;edgeStyle&quot;:&quot;elbowEdgeStyle&quot;,&quot;elbow&quot;:&quot;vertical&quot;,&quot;curved&quot;:0,&quot;rounded&quot;:0};size=65;fillColor=#f5f5f5;fontColor=#333333;strokeColor=#666666;" parent="I_AdbzGn9Q0q4DHOUhhW-22" vertex="1">
          <mxGeometry x="397" y="595" width="150" height="410" as="geometry" />
        </mxCell>
        <mxCell id="mepjcGhPQeWuMpNhq97Y-1" value="Professor" style="shape=umlLifeline;perimeter=lifelinePerimeter;whiteSpace=wrap;container=0;dropTarget=0;collapsible=0;recursiveResize=0;outlineConnect=0;portConstraint=eastwest;newEdgeStyle={&quot;edgeStyle&quot;:&quot;elbowEdgeStyle&quot;,&quot;elbow&quot;:&quot;vertical&quot;,&quot;curved&quot;:0,&quot;rounded&quot;:0};size=65;fillColor=#f5f5f5;fontColor=#333333;strokeColor=#666666;" vertex="1" parent="I_AdbzGn9Q0q4DHOUhhW-22">
          <mxGeometry x="587" y="595" width="150" height="410" as="geometry" />
        </mxCell>
        <mxCell id="mepjcGhPQeWuMpNhq97Y-3" value="" style="points=[];perimeter=orthogonalPerimeter;outlineConnect=0;targetShapes=umlLifeline;portConstraint=eastwest;newEdgeStyle={&quot;edgeStyle&quot;:&quot;elbowEdgeStyle&quot;,&quot;elbow&quot;:&quot;vertical&quot;,&quot;curved&quot;:0,&quot;rounded&quot;:0};fillColor=#f5f5f5;fontColor=#333333;strokeColor=#666666;container=0;" vertex="1" parent="I_AdbzGn9Q0q4DHOUhhW-22">
          <mxGeometry x="657" y="805" width="10" height="30" as="geometry" />
        </mxCell>
        <mxCell id="4wrrVjMqCh2qOetNwkeV-23" value="" style="points=[];perimeter=orthogonalPerimeter;outlineConnect=0;targetShapes=umlLifeline;portConstraint=eastwest;newEdgeStyle={&quot;edgeStyle&quot;:&quot;elbowEdgeStyle&quot;,&quot;elbow&quot;:&quot;vertical&quot;,&quot;curved&quot;:0,&quot;rounded&quot;:0};fillColor=#f5f5f5;fontColor=#333333;strokeColor=#666666;container=0;" vertex="1" parent="I_AdbzGn9Q0q4DHOUhhW-22">
          <mxGeometry x="847" y="868" width="10" height="13" as="geometry" />
        </mxCell>
        <mxCell id="4wrrVjMqCh2qOetNwkeV-24" value="applyDiscount(discount)" style="verticalAlign=bottom;edgeStyle=elbowEdgeStyle;elbow=vertical;curved=0;rounded=0;endArrow=classic;fillColor=#f5f5f5;strokeColor=#666666;endFill=1;" edge="1" parent="I_AdbzGn9Q0q4DHOUhhW-22">
          <mxGeometry relative="1" as="geometry">
            <Array as="points">
              <mxPoint x="687" y="867.58" />
            </Array>
            <mxPoint x="287" y="867.5799999999999" as="sourcePoint" />
            <mxPoint x="847" y="867.5799999999999" as="targetPoint" />
          </mxGeometry>
        </mxCell>
        <mxCell id="4wrrVjMqCh2qOetNwkeV-30" value="true" style="verticalAlign=bottom;edgeStyle=elbowEdgeStyle;elbow=vertical;curved=0;rounded=0;dashed=1;dashPattern=2 3;endArrow=classic;fillColor=#f5f5f5;strokeColor=#666666;endFill=1;" edge="1" parent="I_AdbzGn9Q0q4DHOUhhW-22">
          <mxGeometry relative="1" as="geometry">
            <Array as="points" />
            <mxPoint x="-0.5" y="923.0555555555554" as="targetPoint" />
            <mxPoint x="277" y="923.0555555555554" as="sourcePoint" />
          </mxGeometry>
        </mxCell>
        <mxCell id="4wrrVjMqCh2qOetNwkeV-31" value="false" style="verticalAlign=bottom;edgeStyle=elbowEdgeStyle;elbow=vertical;curved=0;rounded=0;dashed=1;dashPattern=2 3;endArrow=classic;fillColor=#f5f5f5;strokeColor=#666666;endFill=1;" edge="1" parent="I_AdbzGn9Q0q4DHOUhhW-22">
          <mxGeometry relative="1" as="geometry">
            <Array as="points" />
            <mxPoint x="-1" y="975" as="targetPoint" />
            <mxPoint x="276.5" y="975" as="sourcePoint" />
          </mxGeometry>
        </mxCell>
        <mxCell id="_0e_HGupx2ryaP7_1tBM-24" value="" style="points=[];perimeter=orthogonalPerimeter;outlineConnect=0;targetShapes=umlLifeline;portConstraint=eastwest;newEdgeStyle={&quot;edgeStyle&quot;:&quot;elbowEdgeStyle&quot;,&quot;elbow&quot;:&quot;vertical&quot;,&quot;curved&quot;:0,&quot;rounded&quot;:0};container=0;" parent="I_AdbzGn9Q0q4DHOUhhW-22" vertex="1">
          <mxGeometry x="-10.5" y="595" width="10" as="geometry" />
        </mxCell>
        <mxCell id="_0e_HGupx2ryaP7_1tBM-25" value="" style="points=[];perimeter=orthogonalPerimeter;outlineConnect=0;targetShapes=umlLifeline;portConstraint=eastwest;newEdgeStyle={&quot;edgeStyle&quot;:&quot;elbowEdgeStyle&quot;,&quot;elbow&quot;:&quot;vertical&quot;,&quot;curved&quot;:0,&quot;rounded&quot;:0};fillColor=#f5f5f5;fontColor=#333333;strokeColor=#666666;container=0;" parent="I_AdbzGn9Q0q4DHOUhhW-22" vertex="1">
          <mxGeometry x="-10.5" y="685" width="10" height="290" as="geometry" />
        </mxCell>
        <mxCell id="_0e_HGupx2ryaP7_1tBM-34" value="[Professor]" style="text;strokeColor=none;fillColor=none;align=left;verticalAlign=middle;whiteSpace=wrap;container=0;" parent="I_AdbzGn9Q0q4DHOUhhW-22" vertex="1">
          <mxGeometry x="5.470103507185215" y="765" width="933.9784946236559" height="23.662992125984253" as="geometry" />
        </mxCell>
        <mxCell id="_0e_HGupx2ryaP7_1tBM-37" value="" style="points=[];perimeter=orthogonalPerimeter;outlineConnect=0;targetShapes=umlLifeline;portConstraint=eastwest;newEdgeStyle={&quot;edgeStyle&quot;:&quot;elbowEdgeStyle&quot;,&quot;elbow&quot;:&quot;vertical&quot;,&quot;curved&quot;:0,&quot;rounded&quot;:0};fillColor=#f5f5f5;fontColor=#333333;strokeColor=#666666;container=0;" parent="I_AdbzGn9Q0q4DHOUhhW-22" vertex="1">
          <mxGeometry x="277" y="695" width="10" height="280" as="geometry" />
        </mxCell>
        <mxCell id="4wrrVjMqCh2qOetNwkeV-19" value="[yearsOfService &gt;= 5]" style="text;strokeColor=none;fillColor=none;align=left;verticalAlign=middle;whiteSpace=wrap;container=0;" vertex="1" parent="I_AdbzGn9Q0q4DHOUhhW-22">
          <mxGeometry x="288.7363921345113" y="779" width="433.88429752066116" height="7.527692307692307" as="geometry" />
        </mxCell>
        <mxCell id="4wrrVjMqCh2qOetNwkeV-26" value="" style="points=[];perimeter=orthogonalPerimeter;outlineConnect=0;targetShapes=umlLifeline;portConstraint=eastwest;newEdgeStyle={&quot;edgeStyle&quot;:&quot;elbowEdgeStyle&quot;,&quot;elbow&quot;:&quot;vertical&quot;,&quot;curved&quot;:0,&quot;rounded&quot;:0};fillColor=#f5f5f5;fontColor=#333333;strokeColor=#666666;container=0;" vertex="1" parent="I_AdbzGn9Q0q4DHOUhhW-22">
          <mxGeometry x="847" y="900.3700000000001" width="10" height="13" as="geometry" />
        </mxCell>
        <mxCell id="_0e_HGupx2ryaP7_1tBM-27" value="" style="points=[];perimeter=orthogonalPerimeter;outlineConnect=0;targetShapes=umlLifeline;portConstraint=eastwest;newEdgeStyle={&quot;edgeStyle&quot;:&quot;elbowEdgeStyle&quot;,&quot;elbow&quot;:&quot;vertical&quot;,&quot;curved&quot;:0,&quot;rounded&quot;:0};fillColor=#f5f5f5;fontColor=#333333;strokeColor=#666666;container=0;" parent="I_AdbzGn9Q0q4DHOUhhW-22" vertex="1">
          <mxGeometry x="467" y="715" width="10" height="30" as="geometry" />
        </mxCell>
        <mxCell id="4wrrVjMqCh2qOetNwkeV-27" value="finalizePurchase()" style="verticalAlign=bottom;edgeStyle=elbowEdgeStyle;elbow=vertical;curved=0;rounded=0;endArrow=classic;fillColor=#f5f5f5;strokeColor=#666666;endFill=1;" edge="1" parent="I_AdbzGn9Q0q4DHOUhhW-22">
          <mxGeometry relative="1" as="geometry">
            <Array as="points">
              <mxPoint x="687.74" y="899.9500000000002" />
            </Array>
            <mxPoint x="287.74" y="899.95" as="sourcePoint" />
            <mxPoint x="847" y="900" as="targetPoint" />
          </mxGeometry>
        </mxCell>
        <mxCell id="79mV_z3nXGvTlv3c_QOG-1" value="CD" style="" parent="0" />
        <mxCell id="79mV_z3nXGvTlv3c_QOG-2" value="Person" style="swimlane;fontStyle=2;align=center;verticalAlign=top;childLayout=stackLayout;horizontal=1;startSize=26;horizontalStack=0;resizeParent=1;resizeLast=0;collapsible=1;marginBottom=0;rounded=0;shadow=0;strokeWidth=1;editable=1;movable=1;resizable=1;rotatable=1;deletable=1;locked=0;connectable=1;fillColor=#f5f5f5;fontColor=#333333;strokeColor=#666666;container=0;" parent="79mV_z3nXGvTlv3c_QOG-1" vertex="1">
          <mxGeometry x="310" y="40" width="180" height="138" as="geometry">
            <mxRectangle x="230" y="140" width="160" height="26" as="alternateBounds" />
          </mxGeometry>
        </mxCell>
        <mxCell id="URlknNFkNfokDr_kQemO-2" value="interacts" style="edgeStyle=orthogonalEdgeStyle;rounded=0;orthogonalLoop=1;jettySize=auto;html=1;exitX=0.994;exitY=0.115;exitDx=0;exitDy=0;exitPerimeter=0;strokeColor=#666666;endArrow=open;endFill=0;" parent="79mV_z3nXGvTlv3c_QOG-1" edge="1" target="79mV_z3nXGvTlv3c_QOG-17">
          <mxGeometry x="0.0526" y="9" relative="1" as="geometry">
            <mxPoint x="279.99999999999994" y="320" as="sourcePoint" />
            <mxPoint x="390.96" y="323" as="targetPoint" />
            <Array as="points">
              <mxPoint x="280" y="322" />
            </Array>
            <mxPoint as="offset" />
          </mxGeometry>
        </mxCell>
        <mxCell id="79mV_z3nXGvTlv3c_QOG-8" value="Student" style="swimlane;fontStyle=0;align=center;verticalAlign=top;childLayout=stackLayout;horizontal=1;startSize=26;horizontalStack=0;resizeParent=1;resizeLast=0;collapsible=1;marginBottom=0;rounded=0;shadow=0;strokeWidth=1;editable=1;movable=1;resizable=1;rotatable=1;deletable=1;locked=0;connectable=1;fillColor=#f5f5f5;fontColor=#333333;strokeColor=#666666;container=0;" parent="79mV_z3nXGvTlv3c_QOG-1" vertex="1">
          <mxGeometry x="120" y="280" width="160" height="168" as="geometry">
            <mxRectangle x="130" y="380" width="160" height="26" as="alternateBounds" />
          </mxGeometry>
        </mxCell>
        <mxCell id="79mV_z3nXGvTlv3c_QOG-15" value="" style="endArrow=block;endSize=10;endFill=0;shadow=0;strokeWidth=1;rounded=0;edgeStyle=elbowEdgeStyle;elbow=vertical;editable=1;movable=1;resizable=1;rotatable=1;deletable=1;locked=0;connectable=1;fontStyle=0;fillColor=#f5f5f5;strokeColor=#666666;" parent="79mV_z3nXGvTlv3c_QOG-1" source="79mV_z3nXGvTlv3c_QOG-8" target="79mV_z3nXGvTlv3c_QOG-2" edge="1">
          <mxGeometry width="160" relative="1" as="geometry">
            <mxPoint x="310" y="133" as="sourcePoint" />
            <mxPoint x="310" y="133" as="targetPoint" />
          </mxGeometry>
        </mxCell>
        <mxCell id="79mV_z3nXGvTlv3c_QOG-17" value="Professor" style="swimlane;fontStyle=0;align=center;verticalAlign=top;childLayout=stackLayout;horizontal=1;startSize=26;horizontalStack=0;resizeParent=1;resizeLast=0;collapsible=1;marginBottom=0;rounded=0;shadow=0;strokeWidth=1;editable=1;movable=1;resizable=1;rotatable=1;deletable=1;locked=0;connectable=1;fillColor=#f5f5f5;fontColor=#333333;strokeColor=#666666;container=0;" parent="79mV_z3nXGvTlv3c_QOG-1" vertex="1">
          <mxGeometry x="480" y="280" width="235" height="270" as="geometry">
            <mxRectangle x="340" y="380" width="170" height="26" as="alternateBounds" />
          </mxGeometry>
        </mxCell>
        <mxCell id="79mV_z3nXGvTlv3c_QOG-23" value="" style="endArrow=block;endSize=10;endFill=0;shadow=0;strokeWidth=1;rounded=0;edgeStyle=elbowEdgeStyle;elbow=vertical;editable=1;movable=1;resizable=1;rotatable=1;deletable=1;locked=0;connectable=1;fontStyle=0;fillColor=#f5f5f5;strokeColor=#666666;" parent="79mV_z3nXGvTlv3c_QOG-1" source="79mV_z3nXGvTlv3c_QOG-17" target="79mV_z3nXGvTlv3c_QOG-2" edge="1">
          <mxGeometry width="160" relative="1" as="geometry">
            <mxPoint x="320" y="303" as="sourcePoint" />
            <mxPoint x="420" y="201" as="targetPoint" />
          </mxGeometry>
        </mxCell>
        <mxCell id="79mV_z3nXGvTlv3c_QOG-38" value="System" style="swimlane;fontStyle=0;align=center;verticalAlign=top;childLayout=stackLayout;horizontal=1;startSize=26;horizontalStack=0;resizeParent=1;resizeLast=0;collapsible=1;marginBottom=0;rounded=0;shadow=0;strokeWidth=1;editable=1;movable=1;resizable=1;rotatable=1;deletable=1;locked=0;connectable=1;fillColor=#f5f5f5;fontColor=#333333;strokeColor=#666666;container=0;" parent="79mV_z3nXGvTlv3c_QOG-1" vertex="1">
          <mxGeometry x="600" y="40" width="290" height="86" as="geometry">
            <mxRectangle x="340" y="380" width="170" height="26" as="alternateBounds" />
          </mxGeometry>
        </mxCell>
        <mxCell id="jZsfl0iKfp-MvB9kh3k0-19" value="interacts" style="edgeStyle=orthogonalEdgeStyle;rounded=0;orthogonalLoop=1;jettySize=auto;html=1;endArrow=none;endFill=0;strokeColor=#666666;startArrow=open;startFill=0;" parent="79mV_z3nXGvTlv3c_QOG-1" source="79mV_z3nXGvTlv3c_QOG-2" edge="1">
          <mxGeometry x="0.0909" y="10" relative="1" as="geometry">
            <Array as="points">
              <mxPoint x="600" y="100" />
            </Array>
            <mxPoint as="offset" />
            <mxPoint x="600" y="100" as="targetPoint" />
          </mxGeometry>
        </mxCell>
        <mxCell id="4wrrVjMqCh2qOetNwkeV-8" value="ParkingPass" style="swimlane;fontStyle=0;align=center;verticalAlign=top;childLayout=stackLayout;horizontal=1;startSize=26;horizontalStack=0;resizeParent=1;resizeLast=0;collapsible=1;marginBottom=0;rounded=0;shadow=0;strokeWidth=1;editable=1;movable=1;resizable=1;rotatable=1;deletable=1;locked=0;connectable=1;fillColor=#f5f5f5;fontColor=#333333;strokeColor=#666666;container=0;" vertex="1" parent="79mV_z3nXGvTlv3c_QOG-1">
          <mxGeometry x="-30" y="40" width="230" height="138" as="geometry">
            <mxRectangle x="550" y="140" width="160" height="26" as="alternateBounds" />
          </mxGeometry>
        </mxCell>
        <mxCell id="4wrrVjMqCh2qOetNwkeV-13" value="has" style="edgeStyle=orthogonalEdgeStyle;rounded=0;orthogonalLoop=1;jettySize=auto;html=1;exitX=0;exitY=0.5;exitDx=0;exitDy=0;strokeColor=#666666;endArrow=open;endFill=0;" edge="1" parent="79mV_z3nXGvTlv3c_QOG-1">
          <mxGeometry x="0.0909" y="-9" relative="1" as="geometry">
            <mxPoint x="310" y="78.99999999999989" as="sourcePoint" />
            <mxPoint x="200" y="78.99999999999989" as="targetPoint" />
            <mxPoint as="offset" />
          </mxGeometry>
        </mxCell>
        <mxCell id="4wrrVjMqCh2qOetNwkeV-14" value="1" style="edgeLabel;html=1;align=center;verticalAlign=middle;resizable=0;points=[];labelBackgroundColor=none;container=0;" vertex="1" connectable="0" parent="4wrrVjMqCh2qOetNwkeV-13">
          <mxGeometry x="0.7147" y="-1" relative="1" as="geometry">
            <mxPoint x="-10" y="-8" as="offset" />
          </mxGeometry>
        </mxCell>
        <mxCell id="4wrrVjMqCh2qOetNwkeV-15" value="0..1" style="edgeLabel;html=1;align=center;verticalAlign=middle;resizable=0;points=[];labelBackgroundColor=none;container=0;" vertex="1" connectable="0" parent="4wrrVjMqCh2qOetNwkeV-13">
          <mxGeometry x="-0.6144" relative="1" as="geometry">
            <mxPoint x="11" y="-9" as="offset" />
          </mxGeometry>
        </mxCell>
        <mxCell id="79mV_z3nXGvTlv3c_QOG-3" value="+name: str" style="text;align=left;verticalAlign=top;spacingLeft=4;spacingRight=4;overflow=hidden;rotatable=1;points=[[0,0.5],[1,0.5]];portConstraint=eastwest;editable=1;movable=1;resizable=1;deletable=1;locked=0;connectable=1;fontStyle=0;fillColor=#f5f5f5;fontColor=#333333;strokeColor=#666666;container=0;" parent="79mV_z3nXGvTlv3c_QOG-1" vertex="1">
          <mxGeometry x="310" y="66" width="180" height="26" as="geometry" />
        </mxCell>
        <mxCell id="79mV_z3nXGvTlv3c_QOG-4" value="+phoneNumber: str" style="text;align=left;verticalAlign=top;spacingLeft=4;spacingRight=4;overflow=hidden;rotatable=1;points=[[0,0.5],[1,0.5]];portConstraint=eastwest;rounded=0;shadow=0;html=0;editable=1;movable=1;resizable=1;deletable=1;locked=0;connectable=1;fontStyle=0;fillColor=#f5f5f5;fontColor=#333333;strokeColor=#666666;container=0;" parent="79mV_z3nXGvTlv3c_QOG-1" vertex="1">
          <mxGeometry x="310" y="92" width="180" height="26" as="geometry" />
        </mxCell>
        <mxCell id="79mV_z3nXGvTlv3c_QOG-5" value="+emailAddress: str" style="text;align=left;verticalAlign=top;spacingLeft=4;spacingRight=4;overflow=hidden;rotatable=1;points=[[0,0.5],[1,0.5]];portConstraint=eastwest;rounded=0;shadow=0;html=0;editable=1;movable=1;resizable=1;deletable=1;locked=0;connectable=1;fontStyle=0;fillColor=#f5f5f5;fontColor=#333333;strokeColor=#666666;container=0;" parent="79mV_z3nXGvTlv3c_QOG-1" vertex="1">
          <mxGeometry x="310" y="118" width="180" height="26" as="geometry" />
        </mxCell>
        <mxCell id="79mV_z3nXGvTlv3c_QOG-6" value="" style="line;html=1;strokeWidth=1;align=left;verticalAlign=middle;spacingTop=-1;spacingLeft=3;spacingRight=3;rotatable=1;labelPosition=right;points=[];portConstraint=eastwest;editable=1;movable=1;resizable=1;deletable=1;locked=0;connectable=1;fontStyle=0;container=0;" parent="79mV_z3nXGvTlv3c_QOG-1" vertex="1">
          <mxGeometry x="310" y="144" width="180" height="8" as="geometry" />
        </mxCell>
        <mxCell id="jZsfl0iKfp-MvB9kh3k0-3" value="+isProfessor(): bool" style="text;align=left;verticalAlign=top;spacingLeft=4;spacingRight=4;overflow=hidden;rotatable=1;points=[[0,0.5],[1,0.5]];portConstraint=eastwest;editable=1;movable=1;resizable=1;deletable=1;locked=0;connectable=1;fontStyle=2;fillColor=#f5f5f5;fontColor=#333333;strokeColor=#666666;container=0;" parent="79mV_z3nXGvTlv3c_QOG-1" vertex="1">
          <mxGeometry x="310" y="152" width="180" height="26" as="geometry" />
        </mxCell>
        <mxCell id="79mV_z3nXGvTlv3c_QOG-9" value="+studentNumber: int" style="text;align=left;verticalAlign=top;spacingLeft=4;spacingRight=4;overflow=hidden;rotatable=1;points=[[0,0.5],[1,0.5]];portConstraint=eastwest;fontStyle=0;editable=1;movable=1;resizable=1;deletable=1;locked=0;connectable=1;fillColor=#f5f5f5;fontColor=#333333;strokeColor=#666666;container=0;" parent="79mV_z3nXGvTlv3c_QOG-1" vertex="1">
          <mxGeometry x="120" y="306" width="160" height="26" as="geometry" />
        </mxCell>
        <mxCell id="79mV_z3nXGvTlv3c_QOG-10" value="+averageMark: int" style="text;align=left;verticalAlign=top;spacingLeft=4;spacingRight=4;overflow=hidden;rotatable=1;points=[[0,0.5],[1,0.5]];portConstraint=eastwest;rounded=0;shadow=0;html=0;editable=1;movable=1;resizable=1;deletable=1;locked=0;connectable=1;fontStyle=0;fillColor=#f5f5f5;fontColor=#333333;strokeColor=#666666;container=0;" parent="79mV_z3nXGvTlv3c_QOG-1" vertex="1">
          <mxGeometry x="120" y="332" width="160" height="26" as="geometry" />
        </mxCell>
        <mxCell id="79mV_z3nXGvTlv3c_QOG-11" value="" style="line;html=1;strokeWidth=1;align=left;verticalAlign=middle;spacingTop=-1;spacingLeft=3;spacingRight=3;rotatable=1;labelPosition=right;points=[];portConstraint=eastwest;editable=1;movable=1;resizable=1;deletable=1;locked=0;connectable=1;fontStyle=0;container=0;" parent="79mV_z3nXGvTlv3c_QOG-1" vertex="1">
          <mxGeometry x="120" y="358" width="160" height="8" as="geometry" />
        </mxCell>
        <mxCell id="79mV_z3nXGvTlv3c_QOG-12" value="+isEligibleToEnroll(str): bool" style="text;align=left;verticalAlign=top;spacingLeft=4;spacingRight=4;overflow=hidden;rotatable=1;points=[[0,0.5],[1,0.5]];portConstraint=eastwest;fontStyle=0;editable=1;movable=1;resizable=1;deletable=1;locked=0;connectable=1;fillColor=#f5f5f5;fontColor=#333333;strokeColor=#666666;container=0;" parent="79mV_z3nXGvTlv3c_QOG-1" vertex="1">
          <mxGeometry x="120" y="366" width="160" height="26" as="geometry" />
        </mxCell>
        <mxCell id="79mV_z3nXGvTlv3c_QOG-13" value="+getSeminarsTaken(): int&#xa;" style="text;align=left;verticalAlign=top;spacingLeft=4;spacingRight=4;overflow=hidden;rotatable=1;points=[[0,0.5],[1,0.5]];portConstraint=eastwest;editable=1;movable=1;resizable=1;deletable=1;locked=0;connectable=1;fontStyle=0;fillColor=#f5f5f5;fontColor=#333333;strokeColor=#666666;container=0;" parent="79mV_z3nXGvTlv3c_QOG-1" vertex="1">
          <mxGeometry x="120" y="392" width="160" height="28" as="geometry" />
        </mxCell>
        <mxCell id="4wrrVjMqCh2qOetNwkeV-3" value="+isProfessor(): bool" style="text;align=left;verticalAlign=top;spacingLeft=4;spacingRight=4;overflow=hidden;rotatable=1;points=[[0,0.5],[1,0.5]];portConstraint=eastwest;editable=1;movable=1;resizable=1;deletable=1;locked=0;connectable=1;fontStyle=0;fillColor=#f5f5f5;fontColor=#333333;strokeColor=#666666;container=0;" vertex="1" parent="79mV_z3nXGvTlv3c_QOG-1">
          <mxGeometry x="120" y="420" width="160" height="28" as="geometry" />
        </mxCell>
        <mxCell id="79mV_z3nXGvTlv3c_QOG-18" value="/salary: int" style="text;align=left;verticalAlign=top;spacingLeft=4;spacingRight=4;overflow=hidden;rotatable=1;points=[[0,0.5],[1,0.5]];portConstraint=eastwest;editable=1;movable=1;resizable=1;deletable=1;locked=0;connectable=1;fontStyle=0;fillColor=#f5f5f5;fontColor=#333333;strokeColor=#666666;container=0;" parent="79mV_z3nXGvTlv3c_QOG-1" vertex="1">
          <mxGeometry x="480" y="306" width="235" height="26" as="geometry" />
        </mxCell>
        <mxCell id="79mV_z3nXGvTlv3c_QOG-19" value="#staffNumber: int" style="text;align=left;verticalAlign=top;spacingLeft=4;spacingRight=4;overflow=hidden;rotatable=1;points=[[0,0.5],[1,0.5]];portConstraint=eastwest;editable=1;movable=1;resizable=1;deletable=1;locked=0;connectable=1;fontStyle=0;fillColor=#f5f5f5;fontColor=#333333;strokeColor=#666666;container=0;" parent="79mV_z3nXGvTlv3c_QOG-1" vertex="1">
          <mxGeometry x="480" y="332" width="235" height="26" as="geometry" />
        </mxCell>
        <mxCell id="79mV_z3nXGvTlv3c_QOG-20" value="-yearsOfService: int" style="text;align=left;verticalAlign=top;spacingLeft=4;spacingRight=4;overflow=hidden;rotatable=1;points=[[0,0.5],[1,0.5]];portConstraint=eastwest;editable=1;movable=1;resizable=1;deletable=1;locked=0;connectable=1;fontStyle=0;fillColor=#f5f5f5;fontColor=#333333;strokeColor=#666666;container=0;" parent="79mV_z3nXGvTlv3c_QOG-1" vertex="1">
          <mxGeometry x="480" y="358" width="235" height="26" as="geometry" />
        </mxCell>
        <mxCell id="79mV_z3nXGvTlv3c_QOG-21" value="+numberOfClasses: int" style="text;align=left;verticalAlign=top;spacingLeft=4;spacingRight=4;overflow=hidden;rotatable=1;points=[[0,0.5],[1,0.5]];portConstraint=eastwest;editable=1;movable=1;resizable=1;deletable=1;locked=0;connectable=1;fontStyle=0;fillColor=#f5f5f5;fontColor=#333333;strokeColor=#666666;container=0;" parent="79mV_z3nXGvTlv3c_QOG-1" vertex="1">
          <mxGeometry x="480" y="384" width="235" height="26" as="geometry" />
        </mxCell>
        <mxCell id="79mV_z3nXGvTlv3c_QOG-22" value="" style="line;html=1;strokeWidth=1;align=left;verticalAlign=middle;spacingTop=-1;spacingLeft=3;spacingRight=3;rotatable=1;labelPosition=right;points=[];portConstraint=eastwest;editable=1;movable=1;resizable=1;deletable=1;locked=0;connectable=1;fontStyle=0;container=0;" parent="79mV_z3nXGvTlv3c_QOG-1" vertex="1">
          <mxGeometry x="480" y="410" width="235" height="8" as="geometry" />
        </mxCell>
        <mxCell id="79mV_z3nXGvTlv3c_QOG-14" value="+requestEnrollment(course str): bool" style="text;align=left;verticalAlign=top;spacingLeft=4;spacingRight=4;overflow=hidden;rotatable=1;points=[[0,0.5],[1,0.5]];portConstraint=eastwest;editable=1;movable=1;resizable=1;deletable=1;locked=0;connectable=1;fontStyle=0;fillColor=#f5f5f5;fontColor=#333333;strokeColor=#666666;container=0;" parent="79mV_z3nXGvTlv3c_QOG-1" vertex="1">
          <mxGeometry x="480" y="418" width="235" height="26" as="geometry" />
        </mxCell>
        <mxCell id="79mV_z3nXGvTlv3c_QOG-23a" value="+confirmEnrollment(course: str): void" style="text;align=left;verticalAlign=top;spacingLeft=4;spacingRight=4;overflow=hidden;rotatable=1;points=[[0,0.5],[1,0.5]];portConstraint=eastwest;editable=1;movable=1;resizable=1;deletable=1;locked=0;connectable=1;fontStyle=0;fillColor=#f5f5f5;fontColor=#333333;strokeColor=#666666;container=0;" parent="79mV_z3nXGvTlv3c_QOG-1" vertex="1">
          <mxGeometry x="480" y="444" width="235" height="26" as="geometry" />
        </mxCell>
        <mxCell id="79mV_z3nXGvTlv3c_QOG-24a" value="+subscribeToUpdates(course: str): void" style="text;align=left;verticalAlign=top;spacingLeft=4;spacingRight=4;overflow=hidden;rotatable=1;points=[[0,0.5],[1,0.5]];portConstraint=eastwest;editable=1;movable=1;resizable=1;deletable=1;locked=0;connectable=1;fontStyle=0;fillColor=#f5f5f5;fontColor=#333333;strokeColor=#666666;container=0;" parent="79mV_z3nXGvTlv3c_QOG-1" vertex="1">
          <mxGeometry x="480" y="470" width="235" height="26" as="geometry" />
        </mxCell>
        <mxCell id="4wrrVjMqCh2qOetNwkeV-4" value="+isProfessor(): bool" style="text;align=left;verticalAlign=top;spacingLeft=4;spacingRight=4;overflow=hidden;rotatable=1;points=[[0,0.5],[1,0.5]];portConstraint=eastwest;editable=1;movable=1;resizable=1;deletable=1;locked=0;connectable=1;fontStyle=0;fillColor=#f5f5f5;fontColor=#333333;strokeColor=#666666;container=0;" vertex="1" parent="79mV_z3nXGvTlv3c_QOG-1">
          <mxGeometry x="480" y="496" width="235" height="28" as="geometry" />
        </mxCell>
        <mxCell id="jZsfl0iKfp-MvB9kh3k0-5" value="+getDiscount(): float" style="text;align=left;verticalAlign=top;spacingLeft=4;spacingRight=4;overflow=hidden;rotatable=1;points=[[0,0.5],[1,0.5]];portConstraint=eastwest;editable=1;movable=1;resizable=1;deletable=1;locked=0;connectable=1;fontStyle=0;fillColor=#f5f5f5;fontColor=#333333;strokeColor=#666666;container=0;" parent="79mV_z3nXGvTlv3c_QOG-1" vertex="1">
          <mxGeometry x="480" y="524" width="235" height="26" as="geometry" />
        </mxCell>
        <mxCell id="79mV_z3nXGvTlv3c_QOG-39" value="" style="line;html=1;strokeWidth=1;align=left;verticalAlign=middle;spacingTop=-1;spacingLeft=3;spacingRight=3;rotatable=1;labelPosition=right;points=[];portConstraint=eastwest;editable=1;movable=1;resizable=1;deletable=1;locked=0;connectable=1;fontStyle=0;container=0;" parent="79mV_z3nXGvTlv3c_QOG-1" vertex="1">
          <mxGeometry x="600" y="66" width="290" height="8" as="geometry" />
        </mxCell>
        <mxCell id="79mV_z3nXGvTlv3c_QOG-40" value="+approveEnrollment(course str): bool" style="text;align=left;verticalAlign=top;spacingLeft=4;spacingRight=4;overflow=hidden;rotatable=1;points=[[0,0.5],[1,0.5]];portConstraint=eastwest;editable=1;movable=1;resizable=1;deletable=1;locked=0;connectable=1;fontStyle=0;fillColor=#f5f5f5;fontColor=#333333;strokeColor=#666666;container=0;" parent="79mV_z3nXGvTlv3c_QOG-1" vertex="1">
          <mxGeometry x="600" y="74" width="290" height="26" as="geometry" />
        </mxCell>
        <mxCell id="4wrrVjMqCh2qOetNwkeV-6" value="+purchaseParkingPass(person: Person): bool" style="text;align=left;verticalAlign=top;spacingLeft=4;spacingRight=4;overflow=hidden;rotatable=1;points=[[0,0.5],[1,0.5]];portConstraint=eastwest;editable=1;movable=1;resizable=1;deletable=1;locked=0;connectable=1;fontStyle=0;fillColor=#f5f5f5;fontColor=#333333;strokeColor=#666666;container=0;" vertex="1" parent="79mV_z3nXGvTlv3c_QOG-1">
          <mxGeometry x="600" y="100" width="290" height="26" as="geometry" />
        </mxCell>
        <mxCell id="4wrrVjMqCh2qOetNwkeV-9" value="+price: float" style="text;align=left;verticalAlign=top;spacingLeft=4;spacingRight=4;overflow=hidden;rotatable=1;points=[[0,0.5],[1,0.5]];portConstraint=eastwest;editable=1;movable=1;resizable=1;deletable=1;locked=0;connectable=1;fontStyle=0;fillColor=#f5f5f5;fontColor=#333333;strokeColor=#666666;container=0;" vertex="1" parent="79mV_z3nXGvTlv3c_QOG-1">
          <mxGeometry x="-30" y="66" width="230" height="26" as="geometry" />
        </mxCell>
        <mxCell id="4wrrVjMqCh2qOetNwkeV-10" value="+owner: Person" style="text;align=left;verticalAlign=top;spacingLeft=4;spacingRight=4;overflow=hidden;rotatable=1;points=[[0,0.5],[1,0.5]];portConstraint=eastwest;rounded=0;shadow=0;html=0;editable=1;movable=1;resizable=1;deletable=1;locked=0;connectable=1;fontStyle=0;fillColor=#f5f5f5;fontColor=#333333;strokeColor=#666666;container=0;" vertex="1" parent="79mV_z3nXGvTlv3c_QOG-1">
          <mxGeometry x="-30" y="92" width="230" height="26" as="geometry" />
        </mxCell>
        <mxCell id="4wrrVjMqCh2qOetNwkeV-11" value="" style="line;html=1;strokeWidth=1;align=left;verticalAlign=middle;spacingTop=-1;spacingLeft=3;spacingRight=3;rotatable=1;labelPosition=right;points=[];portConstraint=eastwest;editable=1;movable=1;resizable=1;deletable=1;locked=0;connectable=1;fontStyle=0;container=0;" vertex="1" parent="79mV_z3nXGvTlv3c_QOG-1">
          <mxGeometry x="-30" y="118" width="230" height="8" as="geometry" />
        </mxCell>
        <mxCell id="4wrrVjMqCh2qOetNwkeV-12" value="+applyDiscount(float): void" style="text;align=left;verticalAlign=top;spacingLeft=4;spacingRight=4;overflow=hidden;rotatable=1;points=[[0,0.5],[1,0.5]];portConstraint=eastwest;editable=1;movable=1;resizable=1;deletable=1;locked=0;connectable=1;fontStyle=0;fillColor=#f5f5f5;fontColor=#333333;strokeColor=#666666;container=0;" vertex="1" parent="79mV_z3nXGvTlv3c_QOG-1">
          <mxGeometry x="-30" y="126" width="230" height="26" as="geometry" />
        </mxCell>
        <mxCell id="4wrrVjMqCh2qOetNwkeV-16" value="+finalizePurchase(): void" style="text;align=left;verticalAlign=top;spacingLeft=4;spacingRight=4;overflow=hidden;rotatable=1;points=[[0,0.5],[1,0.5]];portConstraint=eastwest;editable=1;movable=1;resizable=1;deletable=1;locked=0;connectable=1;fontStyle=0;fillColor=#f5f5f5;fontColor=#333333;strokeColor=#666666;container=0;" vertex="1" parent="79mV_z3nXGvTlv3c_QOG-1">
          <mxGeometry x="-30" y="152" width="230" height="26" as="geometry" />
        </mxCell>
      </root>
    </mxGraphModel>
  </diagram>
</mxfile>
